{
  "accessors": [
    {
      "bufferView": 0,
      "componentType": 5126,
      "count": 9638,
      "max": [
        38.27527618408203,
        6.939578056335449,
        25.765132904052734
      ],
      "min": [
        -31.715129852294922,
        2.9393672943115234,
        -74.22293090820313
      ],
      "name": "positions",
      "type": "VEC3"
    },
    {
      "bufferView": 1,
      "componentType": 5125,
      "count": 47892,
      "name": "pos_index",
      "type": "SCALAR"
    },
    {
      "bufferView": 2,
      "componentType": 5126,
      "count": 9638,
      "name": "normals",
      "type": "VEC3"
    },
    {
      "bufferView": 3,
      "componentType": 5126,
      "count": 9638,
      "name": "uvs",
      "type": "VEC2"
    },
    {
      "bufferView": 4,
      "componentType": 5126,
      "count": 9225,
      "max": [
        31.214189529418945,
        9.76211166381836,
        -11.499177932739258
      ],
      "min": [
        -25.21344757080078,
        6.000003814697266,
        -52.439735412597656
      ],
      "name": "positions",
      "type": "VEC3"
    },
    {
      "bufferView": 5,
      "componentType": 5125,
      "count": 47898,
      "name": "pos_index",
      "type": "SCALAR"
    },
    {
      "bufferView": 6,
      "componentType": 5126,
      "count": 9225,
      "name": "normals",
      "type": "VEC3"
    },
    {
      "bufferView": 7,
      "componentType": 5126,
      "count": 9225,
      "name": "uvs",
      "type": "VEC2"
    },
    {
      "bufferView": 8,
      "componentType": 5126,
      "count": 10604,
      "max": [
        42.7685432434082,
        11.426786422729492,
        10.112899780273438
      ],
      "min": [
        12.768620491027832,
        6.0009660720825195,
        -4.887068271636963
      ],
      "name": "positions",
      "type": "VEC3"
    },
    {
      "bufferView": 9,
      "componentType": 5125,
      "count": 47898,
      "name": "pos_index",
      "type": "SCALAR"
    },
    {
      "bufferView": 10,
      "componentType": 5126,
      "count": 10604,
      "name": "normals",
      "type": "VEC3"
    },
    {
      "bufferView": 11,
      "componentType": 5126,
      "count": 10604,
      "name": "uvs",
      "type": "VEC2"
    }
  ],
  "asset": {
    "version": "2.0"
  },
  "bufferViews": [
    {
      "buffer": 0,
      "byteLength": 115656,
      "name": "positions",
      "target": 34962
    },
    {
      "buffer": 1,
      "byteLength": 191568,
      "name": "pos_index",
      "target": 34963
    },
    {
      "buffer": 2,
      "byteLength": 115656,
      "name": "normals",
      "target": 34962
    },
    {
      "buffer": 3,
      "byteLength": 77104,
      "name": "uvs",
      "target": 34962
    },
    {
      "buffer": 4,
      "byteLength": 110700,
      "name": "positions",
      "target": 34962
    },
    {
      "buffer": 5,
      "byteLength": 191592,
      "name": "pos_index",
      "target": 34963
    },
    {
      "buffer": 6,
      "byteLength": 110700,
      "name": "normals",
      "target": 34962
    },
    {
      "buffer": 7,
      "byteLength": 73800,
      "name": "uvs",
      "target": 34962
    },
    {
      "buffer": 8,
      "byteLength": 127248,
      "name": "positions",
      "target": 34962
    },
    {
      "buffer": 9,
      "byteLength": 191592,
      "name": "pos_index",
      "target": 34963
    },
    {
      "buffer": 10,
      "byteLength": 127248,
      "name": "normals",
      "target": 34962
    },
    {
      "buffer": 11,
      "byteLength": 84832,
      "name": "uvs",
      "target": 34962
    }
  ],
  "buffers": [
    {
      "byteLength": 115656,
      "name": "positions",
      "uri": "data:application/octet-stream;base64,"
    },
    {
      "byteLength": 191568,
      "name": "pos_index",
      "uri": "data:application/octet-stream;base64,"
    },
    {
      "byteLength": 115656,
      "name": "normals",
      "uri": "data:application/octet-stream;base64,"
    },
    {
      "byteLength": 77104,
      "name": "uvs",
      "uri": "data:application/octet-stream;base64,"
    },
    {
      "byteLength": 110700,
      "name": "positions",
      "uri": "data:application/octet-stream;base64,"
    },
    {
      "byteLength": 191592,
      "name": "pos_index",
      "uri": "data:application/octet-stream;base64,"
    },
    {
      "byteLength": 110700,
      "name": "normals",
      "uri": "data:application/octet-stream;base64,"
    },
    {
      "byteLength": 73800,
      "name": "uvs",
      "uri": "data:application/octet-stream;base64,"
    },
    {
      "byteLength": 127248,
      "name": "positions",
      "uri": "data:application/octet-stream;base64,"
    },
    {
      "byteLength": 191592,
      "name": "pos_index",
      "uri": "data:application/octet-stream;base64,"
    },
    {
      "byteLength": 127248,
      "name": "normals",
      "uri": "data:application/octet-stream;base64,"
    },
    {
      "byteLength": 84832,
      "name": "uvs",
      "uri": "data:application/octet-stream;base64,"
    }
  ],
  "extensionsUsed": [
    "KHR_materials_transmission"
  ],
  "images": [
    {
      "uri": "model_0_color.png"
    },
    {
      "uri": "model_0_metallicRoughness.png"
    },
    {
      "uri": "model_0_transmittance.png"
    },
    {
      "uri": "model_1_color.png"
    },
    {
      "uri": "model_1_metallicRoughness.png"
    },
    {
      "uri": "model_1_transmittance.png"
    },
    {
      "uri": "model_2_color.png"
    },
    {
      "uri": "model_2_metallicRoughness.png"
    },
    {
      "uri": "model_2_transmittance.png"
    }
  ],
  "materials": [
    {
      "doubleSided": true,
      "extensions": {
        "KHR_materials_transmission": {
          "transmissionFactor": 1.0,
          "transmissionTexture": {
            "index": 2
          }
        }
      },
      "name": "Area (1)",
      "pbrMetallicRoughness": {
        "baseColorTexture": {
          "index": 0
        },
        "metallicRoughnessTexture": {
          "index": 1
        }
      }
    },
    {
      "doubleSided": true,
      "extensions": {
        "KHR_materials_transmission": {
          "transmissionFactor": 1.0,
          "transmissionTexture": {
            "index": 5
          }
        }
      },
      "name": "Area (2)",
      "pbrMetallicRoughness": {
        "baseColorTexture": {
          "index": 3
        },
        "metallicRoughnessTexture": {
          "index": 4
        }
      }
    },
    {
      "doubleSided": true,
      "extensions": {
        "KHR_materials_transmission": {
          "transmissionFactor": 1.0,
          "transmissionTexture": {
            "index": 8
          }
        }
      },
      "name": "Area (3)",
      "pbrMetallicRoughness": {
        "baseColorTexture": {
          "index": 6
        },
        "metallicRoughnessTexture": {
          "index": 7
        }
      }
    }
  ],
  "meshes": [
    {
      "name": "Area (1)",
      "primitives": [
        {
          "attributes": {
            "NORMAL": 2,
            "POSITION": 0,
            "TEXCOORD_0": 3
          },
          "indices": 1,
          "material": 0,
          "mode": 4
        }
      ]
    },
    {
      "name": "Area (2)",
      "primitives": [
        {
          "attributes": {
            "NORMAL": 6,
            "POSITION": 4,
            "TEXCOORD_0": 7
          },
          "indices": 5,
          "material": 1,
          "mode": 4
        }
      ]
    },
    {
      "name": "Area (3)",
      "primitives": [
        {
          "attributes": {
            "NORMAL": 10,
            "POSITION": 8,
            "TEXCOORD_0": 11
          },
          "indices": 9,
          "material": 2,
          "mode": 4
        }
      ]
    }
  ],
  "nodes": [
    {
      "mesh": 0,
      "name": "Area (1)"
    },
    {
      "mesh": 1,
      "name": "Area (2)"
    },
    {
      "mesh": 2,
      "name": "Area (3)"
    }
  ],
  "scene": 0,
  "scenes": [
    {
      "nodes": [
        0,
        1,
        2
      ]
    }
  ],
  "textures": [
    {
      "source": 0
    },
    {
      "source": 1
    },
    {
      "source": 2
    },
    {
      "source": 3
    },
    {
      "source": 4
    },
    {
      "source": 5
    },
    {
      "source": 6
    },
    {
      "source": 7
    },
    {
      "source": 8
    }
  ]
}
