{
  "accessors": [
    {
      "bufferView": 2,
      "componentType": 5126,
      "count": 29725,
      "max": [
        2.0709006786346436,
        3.8751144409179688,
        0.7321587204933167
      ],
      "min": [
        -1.9853719472885132,
        -0.01668870449066162,
        -0.4349970519542694
      ],
      "type": "VEC3"
    },
    {
      "bufferView": 2,
      "byteOffset": 356700,
      "componentType": 5126,
      "count": 29725,
      "max": [
        0.9999198317527771,
        0.9999579787254333,
        1.0
      ],
      "min": [
        -0.9999197721481323,
        -0.9998961687088013,
        -1.0
      ],
      "type": "VEC3"
    },
    {
      "bufferView": 1,
      "componentType": 5126,
      "count": 29725,
      "max": [
        0.9973084926605225,
        0.862760066986084
      ],
      "min": [
        0.0026912689208984375,
        0.0026912689208984375
      ],
      "type": "VEC2"
    },
    {
      "bufferView": 0,
      "componentType": 5125,
      "count": 168960,
      "type": "SCALAR"
    }
  ],
  "asset": {
    "extras": {
      "author": "giga (https://sketchfab.com/gits3d)",
      "license": "CC-BY-4.0 (http://creativecommons.org/licenses/by/4.0/)",
      "source": "https://sketchfab.com/3d-models/starfish-503de69b733146f6b9cc4da6a7c4e3d4",
      "title": "Starfish"
    },
    "generator": "Sketchfab-12.58.1",
    "version": "2.0"
  },
  "bufferViews": [
    {
      "buffer": 0,
      "byteLength": 675840,
      "name": "floatBufferViews",
      "target": 34963
    },
    {
      "buffer": 0,
      "byteLength": 237800,
      "byteOffset": 675840,
      "byteStride": 8,
      "name": "floatBufferViews",
      "target": 34962
    },
    {
      "buffer": 0,
      "byteLength": 713400,
      "byteOffset": 913640,
      "byteStride": 12,
      "name": "floatBufferViews",
      "target": 34962
    }
  ],
  "buffers": [
    {
      "byteLength": 1627040,
      "uri": "scene.bin"
    }
  ],
  "images": [
    {
      "uri": "textures/Material.002_baseColor.png"
    }
  ],
  "materials": [
    {
      "doubleSided": true,
      "name": "Material.002",
      "pbrMetallicRoughness": {
        "baseColorTexture": {
          "index": 0
        },
        "metallicFactor": 0.0,
        "roughnessFactor": 0.40353357251138666
      }
    }
  ],
  "meshes": [
    {
      "name": "Circle_Material.002_0",
      "primitives": [
        {
          "attributes": {
            "NORMAL": 1,
            "POSITION": 0,
            "TEXCOORD_0": 2
          },
          "indices": 3,
          "material": 0,
          "mode": 4
        }
      ]
    }
  ],
  "nodes": [
    {
      "children": [
        1
      ],
      "matrix": [
        1.0,
        0.0,
        0.0,
        0.0,
        0.0,
        2.220446049250313e-16,
        -1.0,
        0.0,
        0.0,
        1.0,
        2.220446049250313e-16,
        0.0,
        0.0,
        0.0,
        0.0,
        1.0
      ],
      "name": "Sketchfab_model"
    },
    {
      "children": [
        2
      ],
      "matrix": [
        0.009999999776482582,
        0.0,
        0.0,
        0.0,
        0.0,
        0.0,
        0.009999999776482582,
        0.0,
        0.0,
        -0.009999999776482582,
        0.0,
        0.0,
        0.0,
        0.0,
        0.0,
        1.0
      ],
      "name": "ca4b641fda5441d4b815d7fcebf3c491.fbx"
    },
    {
      "children": [
        3
      ],
      "name": "RootNode"
    },
    {
      "children": [
        4
      ],
      "matrix": [
        93.40457280871121,
        0.9977351237488237,
        -35.70138340689556,
        0.0,
        -12.28221821027916,
        94.76158896908042,
        -29.485366641968266,
        0.0,
        33.53701745830737,
        31.925607438596913,
        88.63421489288316,
        0.0,
        0.0,
        0.0,
        0.0,
        1.0
      ],
      "name": "Circle"
    },
    {
      "mesh": 0,
      "name": "Circle_Material.002_0"
    }
  ],
  "samplers": [
    {
      "magFilter": 9729,
      "minFilter": 9987,
      "wrapS": 10497,
      "wrapT": 10497
    }
  ],
  "scene": 0,
  "scenes": [
    {
      "name": "Sketchfab_Scene",
      "nodes": [
        0
      ]
    }
  ],
  "textures": [
    {
      "sampler": 0,
      "source": 0
    }
  ]
}
